<svg xmlns="http://www.w3.org/2000/svg" viewBox="0 0 512 512" role="img" aria-label="">
  <rect width="512" height="512" rx="96" fill="#1db954"/>
  <path fill="#0f1419" d="M256 120c-75 0-136 61-136 136s61 136 136 136 136-61 136-136-61-136-136-136zm62 196c-1 2-4 3-6 2-35-21-79-26-131-14-2 1-4-1-4-3v-1c0-2 1-3 3-4 54-12 101-7 138 15 2 1 3 4 2 6zm17-38c-2 3-6 4-9 2-40-24-101-31-148-17-4 1-7-1-8-4 0-4 2-7 5-8 51-15 115-7 159 19 3 2 4 6 1 8zm1-40c-48-28-127-31-173-17-5 2-10-1-11-6s2-10 7-11c52-15 138-12 191 19 4 3 6 9 3 13-3 5-9 7-14 4z"/>
</svg>
