<svg xmlns="http://www.w3.org/2000/svg" aria-hidden="true" focusable="false">
      <symbol id="sym-back" viewBox="0 0 24 24" fill="none" stroke="currentColor" stroke-width="2">
        <path stroke-linecap="round" stroke-linejoin="round" d="M15 18l-6-6 6-6" />
      </symbol>
      <symbol id="sym-bell" viewBox="0 0 24 24" fill="none" stroke="currentColor" stroke-width="2">
        <path d="M18 8A6 6 0 106 8c0 7-3 7-3 7h18s-3 0-3-7" stroke-linecap="round" stroke-linejoin="round" />
        <path d="M13.73 21a2 2 0 01-3.46 0" stroke-linecap="round" />
      </symbol>
      <!-- Hjälp: ? i cirkel (bild 8 / produktikoner) -->
      <symbol id="sym-help" viewBox="0 0 24 24" fill="none" stroke="currentColor" stroke-width="2" stroke-linecap="round" stroke-linejoin="round">
        <circle cx="12" cy="12" r="10" />
        <path d="M9.09 9a3 3 0 0 1 5.83 1c0 2-3 3-3 3" />
        <path d="M12 17h.01" />
      </symbol>
      <symbol id="sym-gear" viewBox="0 0 24 24" fill="none" stroke="currentColor" stroke-width="2">
        <circle cx="12" cy="12" r="3" />
        <path
          d="M12 1v2m0 18v2M4.22 4.22l1.42 1.42m12.72 12.72l1.42 1.42M1 12h2m18 0h2M4.22 19.78l1.42-1.42M18.36 5.64l1.42-1.42"
          stroke-linecap="round"
        />
      </symbol>
      <symbol id="sym-clipboard" viewBox="0 0 24 24" fill="none" stroke="currentColor" stroke-width="2">
        <path d="M9 5H7a2 2 0 00-2 2v12a2 2 0 002 2h10a2 2 0 002-2V7a2 2 0 00-2-2h-2M9 5a2 2 0 002 2h2a2 2 0 002-2M9 5a2 2 0 012-2h2a2 2 0 012 2" stroke-linecap="round" />
      </symbol>
      <symbol id="sym-copy" viewBox="0 0 24 24" fill="none" stroke="currentColor" stroke-width="2" stroke-linecap="round" stroke-linejoin="round">
        <rect x="9" y="9" width="13" height="13" rx="2" ry="2" />
        <path d="M5 15H4a2 2 0 01-2-2V4a2 2 0 012-2h9a2 2 0 012 2v1" />
      </symbol>
      <!-- Spellista: lista + not (bild 8) -->
      <symbol id="sym-playlist" viewBox="0 0 24 24" fill="none" stroke="currentColor" stroke-width="2" stroke-linecap="round" stroke-linejoin="round">
        <path d="M7 7h9M7 12h9M7 17h6" />
        <circle cx="4.5" cy="7" r="1" fill="currentColor" stroke="none" />
        <circle cx="4.5" cy="12" r="1" fill="currentColor" stroke="none" />
        <circle cx="4.5" cy="17" r="1" fill="currentColor" stroke="none" />
        <path d="M15 5v12l4-1V6l-4-1z" />
        <path d="M15 8.5l4-1" />
      </symbol>
      <!-- Redigera (bild 8) -->
      <symbol id="sym-pencil" viewBox="0 0 24 24" fill="none" stroke="currentColor" stroke-width="2" stroke-linecap="round" stroke-linejoin="round">
        <path d="M12 20h9M16.5 3.5a2.121 2.121 0 013 3L7 19l-4 1 1-4L16.5 3.5z" />
      </symbol>
      <!-- Sökcache: sök + uppdateringspil (bild 8) -->
      <symbol id="sym-mag-refresh" viewBox="0 0 24 24" fill="none" stroke="currentColor" stroke-width="2" stroke-linecap="round" stroke-linejoin="round">
        <circle cx="10.5" cy="10.5" r="5.5" />
        <path d="M15 15l4.5 4.5" />
        <path d="M19 11v4h-4" />
        <path d="M17.5 8.5a5.5 5.5 0 0 1 1 3" />
      </symbol>
      <symbol id="sym-refresh" viewBox="0 0 24 24" fill="none" stroke="currentColor" stroke-width="2" stroke-linecap="round" stroke-linejoin="round">
        <path d="M21 12a9 9 0 0 0-15.54-3L3 8M3 12a9 9 0 0 0 15.54 3L21 16" />
        <path d="M3 8v4h4M21 16v-4h-4" />
      </symbol>
      <symbol id="sym-spotify" viewBox="0 0 24 24">
        <circle cx="12" cy="12" r="12" fill="#1db954" />
        <path
          fill="#fff"
          d="M17.25 16.5c-.2 0-.4-.05-.58-.14-1.65-.75-3.8-1.15-6.32-1.15-.5 0-1 .02-1.48.06-.12.01-.24-.03-.33-.1a.42.42 0 01-.15-.32v-.8c0-.2.14-.36.34-.38.52-.05 1.06-.08 1.62-.08 2.72 0 5.05.44 6.85 1.26.18.08.3.26.3.46v.8c0 .22-.18.4-.4.4zm.9-3.2c-.25 0-.5-.07-.72-.2-1.9-1.1-4.75-1.7-7.9-1.7-.58 0-1.15.03-1.7.08-.15.02-.3-.04-.42-.15a.5.5 0 01-.18-.38v-.9c0-.24.16-.45.4-.5.6-.06 1.22-.1 1.9-.1 3.45 0 6.55.65 8.65 1.85.22.13.36.36.36.62v.9c0 .28-.22.5-.5.5zM7.5 8.6c-.28 0-.5-.22-.5-.5v-1c0-.26.16-.48.4-.58 1.15-.5 2.95-.85 5.1-.85 2.1 0 4.05.35 5.35.85.24.1.4.32.4.58v1c0 .28-.22.5-.5.5-.1 0-.2-.03-.3-.08-1.2-.5-3-.8-4.95-.8-2 0-3.75.3-4.9.8-.1.05-.2.08-.3.08z"
        />
      </symbol>
      <symbol id="sym-spotify-mark" viewBox="0 0 24 24">
        <path
          fill="currentColor"
          d="M17.25 16.5c-.2 0-.4-.05-.58-.14-1.65-.75-3.8-1.15-6.32-1.15-.5 0-1 .02-1.48.06-.12.01-.24-.03-.33-.1a.42.42 0 01-.15-.32v-.8c0-.2.14-.36.34-.38.52-.05 1.06-.08 1.62-.08 2.72 0 5.05.44 6.85 1.26.18.08.3.26.3.46v.8c0 .22-.18.4-.4.4zm.9-3.2c-.25 0-.5-.07-.72-.2-1.9-1.1-4.75-1.7-7.9-1.7-.58 0-1.15.03-1.7.08-.15.02-.3-.04-.42-.15a.5.5 0 01-.18-.38v-.9c0-.24.16-.45.4-.5.6-.06 1.22-.1 1.9-.1 3.45 0 6.55.65 8.65 1.85.22.13.36.36.36.62v.9c0 .28-.22.5-.5.5zM7.5 8.6c-.28 0-.5-.22-.5-.5v-1c0-.26.16-.48.4-.58 1.15-.5 2.95-.85 5.1-.85 2.1 0 4.05.35 5.35.85.24.1.4.32.4.58v1c0 .28-.22.5-.5.5-.1 0-.2-.03-.3-.08-1.2-.5-3-.8-4.95-.8-2 0-3.75.3-4.9.8-.1.05-.2.08-.3.08z"
        />
      </symbol>
      <symbol id="sym-lock" viewBox="0 0 24 24" fill="none" stroke="currentColor" stroke-width="2">
        <rect x="5" y="11" width="14" height="10" rx="2" />
        <path d="M7 11V7a5 5 0 0110 0v4" stroke-linecap="round" />
      </symbol>
      <symbol id="sym-clock" viewBox="0 0 24 24" fill="none" stroke="currentColor" stroke-width="2">
        <circle cx="12" cy="12" r="10" />
        <path d="M12 6v6l4 2" stroke-linecap="round" />
      </symbol>
      <symbol id="sym-lightning" viewBox="0 0 24 24" fill="none" stroke="currentColor" stroke-width="2">
        <path d="M13 2L3 14h8l-1 8 10-12h-8l1-8z" stroke-linejoin="round" />
      </symbol>
      <symbol id="sym-plus" viewBox="0 0 24 24" fill="none" stroke="currentColor" stroke-width="2">
        <path d="M12 5v14M5 12h14" stroke-linecap="round" />
      </symbol>
      <symbol id="sym-link" viewBox="0 0 24 24" fill="none" stroke="currentColor" stroke-width="2">
        <path d="M10 13a5 5 0 007.07 0l1-1a5 5 0 00-7.07-7.07l-.77.77M14 11a5 5 0 00-7.07 0l-1 1a5 5 0 007.07 7.07l.77-.77" stroke-linecap="round" />
      </symbol>
      <symbol id="sym-list" viewBox="0 0 24 24" fill="none" stroke="currentColor" stroke-width="2">
        <path d="M9 6h12M9 12h12M9 18h12M5 6h.01M5 12h.01M5 18h.01" stroke-linecap="round" />
      </symbol>
      <symbol id="sym-note" viewBox="0 0 24 24" fill="none" stroke="currentColor" stroke-width="2">
        <path d="M9 18V5l12-2v13M9 9l12-2" stroke-linecap="round" stroke-linejoin="round" />
      </symbol>
      <symbol id="sym-bulb" viewBox="0 0 24 24" fill="none" stroke="currentColor" stroke-width="2">
        <path d="M9 18h6M10 22h4M12 2a7 7 0 017 7c0 2.5-1.5 4.5-3 6H8c-1.5-1.5-3-3.5-3-6a7 7 0 017-7z" stroke-linecap="round" stroke-linejoin="round" />
      </symbol>
      <symbol id="sym-info" viewBox="0 0 24 24" fill="none" stroke="currentColor" stroke-width="2">
        <circle cx="12" cy="12" r="10" />
        <path d="M12 16v-4M12 8h.01" stroke-linecap="round" />
      </symbol>
      <symbol id="sym-tag" viewBox="0 0 24 24" fill="none" stroke="currentColor" stroke-width="2">
        <path d="M12 2H2v10l9.3 9.3a1 1 0 001.4 0l6.6-6.6a1 1 0 000-1.4L12 2zM7 7h.01" stroke-linecap="round" stroke-linejoin="round" />
      </symbol>
      <symbol id="sym-mag" viewBox="0 0 24 24" fill="none" stroke="currentColor" stroke-width="2">
        <circle cx="11" cy="11" r="7" />
        <path d="M21 21l-4.3-4.3" stroke-linecap="round" />
      </symbol>
      <symbol id="sym-check-circle" viewBox="0 0 24 24" fill="none" stroke="currentColor" stroke-width="2">
        <circle cx="12" cy="12" r="10" />
        <path d="M8 12.5l2.2 2L16 9" stroke-linecap="round" stroke-linejoin="round" />
      </symbol>
      <symbol id="sym-chevron-down" viewBox="0 0 24 24" fill="none" stroke="currentColor" stroke-width="2">
        <path d="M6 9l6 6 6-6" stroke-linecap="round" stroke-linejoin="round" />
      </symbol>
      <symbol id="sym-eye" viewBox="0 0 24 24" fill="none" stroke="currentColor" stroke-width="2">
        <path d="M1 12s4-7 11-7 11 7 11 7-4 7-11 7-11-7-11-7z" stroke-linecap="round" stroke-linejoin="round" />
        <circle cx="12" cy="12" r="3" />
      </symbol>
      <symbol id="sym-eye-off" viewBox="0 0 24 24" fill="none" stroke="currentColor" stroke-width="2">
        <path d="M2 2l20 20" stroke-linecap="round" />
        <path
          d="M10.5 10.5c.5-.3 1.1-.5 1.7-.5 1.7 0 3 1.3 3 3 0 .6-.2 1.2-.5 1.7M6.1 6.1C3.8 7.4 2 9.1 1.3 11c1.8 4.2 5.9 7 10.7 7 1.6 0 3.1-.3 4.5-.9"
          stroke-linecap="round"
          stroke-linejoin="round"
        />
      </symbol>
    </svg>