<?xml version="1.0"?>
<svg width="16" height="16" xmlns="http://www.w3.org/2000/svg" xmlns:svg="http://www.w3.org/2000/svg" class="bi bi-music-note-list">
 <g class="layer">
  <title>Layer 1</title>
  <path d="m6.15,12.74a0.5,0.5 0 0 1 0.5,-0.5l3.5,0a0.5,0.5 0 0 1 0,1l-3.5,0a0.5,0.5 0 0 1 -0.5,-0.5m0,-4a0.5,0.5 0 0 1 0.5,-0.5l7.5,0a0.5,0.5 0 0 1 0,1l-7.5,0a0.5,0.5 0 0 1 -0.5,-0.5m0,-4a0.5,0.5 0 0 1 0.5,-0.5l7.5,0a0.5,0.5 0 0 1 0,1l-7.5,0a0.5,0.5 0 0 1 -0.5,-0.5" fill-rule="evenodd" id="svg_4" transform="matrix(0.868469 0 0 0.993099 0.808792 0.029277)"/>
  <g id="svg_5" transform="matrix(0.843431 0 0 1.09465 -0.0126422 -1.46096)">
   <path d="m12,13c0,1.11 -1.12,2 -2.5,2s-2.5,-0.89 -2.5,-2s1.12,-2 2.5,-2s2.5,0.89 2.5,2" id="svg_1" transform="matrix(1 0 0 1 -7.01863 0.434783)"/>
   <path d="m4.98,3.43l0,10l-1,0l0,-10l1,0z" fill-rule="evenodd" id="svg_2"/>
   <path d="m3.98,3.25a1,1 0 0 1 0.8,-0.98l3,-0.6a1,1 0 0 1 1.2,0.98l0,1.78l-5,1l0,-2.18z" id="svg_3" transform="matrix(1 0 0 1 0 0)"/>
  </g>
  <path d="m13.1,10.6a0.31,0.32 0 0 1 0.31,0.32l0,1.92l1.88,0a0.31,0.32 0 0 1 0,0.64l-1.88,0l0,1.92a0.31,0.32 0 0 1 -0.63,0l0,-1.92l-1.88,0a0.31,0.32 0 0 1 0,-0.64l1.88,0l0,-1.92a0.31,0.32 0 0 1 0.31,-0.32" id="svg_6" transform="matrix(1 0 0 1 -0.0621118 -0.496894)"/>
 </g>
</svg>