<?xml version="1.0"?>
<svg width="16" height="16" xmlns="http://www.w3.org/2000/svg" xmlns:svg="http://www.w3.org/2000/svg" class="bi bi-music-note-list">
 <g class="layer">
  <title>Layer 1</title>
  <path d="m6.15,12.68a0.43,0.5 0 0 1 0.43,-0.5l3.04,0a0.43,0.5 0 0 1 0,0.99l-3.04,0a0.43,0.5 0 0 1 -0.43,-0.5m0,-3.97a0.43,0.5 0 0 1 0.43,-0.5l6.51,0a0.43,0.5 0 0 1 0,0.99l-6.51,0a0.43,0.5 0 0 1 -0.43,-0.5m0,-3.97a0.43,0.5 0 0 1 0.43,-0.5l6.51,0a0.43,0.5 0 0 1 0,0.99l-6.51,0a0.43,0.5 0 0 1 -0.43,-0.5" fill-rule="evenodd" id="svg_4"/>
  <g id="svg_5" transform="matrix(0.843431 0 0 1.09465 -0.0126422 -1.46096)">
   <path d="m12,13c0,1.11 -1.12,2 -2.5,2s-2.5,-0.89 -2.5,-2s1.12,-2 2.5,-2s2.5,0.89 2.5,2" id="svg_1" transform="matrix(1 0 0 1 -7.01863 0.434783)"/>
   <path d="m4.98,3.43l0,10l-1,0l0,-10l1,0z" fill-rule="evenodd" id="svg_2"/>
   <path d="m3.98,3.25a1,1 0 0 1 0.8,-0.98l3,-0.6a1,1 0 0 1 1.2,0.98l0,1.78l-5,1l0,-2.18z" id="svg_3" transform="matrix(1 0 0 1 0 0)"/>
  </g>
  <path d="m14.47,9.39a0.17,0.19 0 0 1 0.24,0l1.04,1.17a0.17,0.19 0 0 1 0,0.27l-3.47,3.89a0.17,0.19 0 0 1 -0.06,0.04l-1.73,0.78a0.17,0.19 0 0 1 -0.23,-0.25l0.69,-1.95a0.17,0.19 0 0 1 0.04,-0.06l3.47,-3.89zm-0.33,0.91l0.79,0.89l0.45,-0.5l-0.79,-0.89l-0.45,0.5zm0.55,1.17l-0.79,-0.89l-2.25,2.53l0,0.11l0.17,0a0.17,0.19 0 0 1 0.17,0.19l0,0.19l0.17,0a0.17,0.19 0 0 1 0.17,0.19l0,0.19l0.1,0l2.25,-2.53zm-3.39,2.02l-0.03,0.04l-0.53,1.49l1.33,-0.6l0.04,-0.04a0.17,0.19 0 0 1 -0.11,-0.18l0,-0.19l-0.17,0a0.17,0.19 0 0 1 -0.17,-0.19l0,-0.19l-0.17,0a0.17,0.19 0 0 1 -0.16,-0.12" id="svg_8"/>
 </g>
</svg>