<svg xmlns="http://www.w3.org/2000/svg" aria-hidden="true" focusable="false">
  <!-- Produktikoner / toppbar enligt spec "Ikoner och grafiska element" (tunn kontur, ? = hjälp, i = info). -->
  <symbol id="sym-back" viewBox="0 0 24 24">
    <g fill="none" stroke="currentColor" stroke-width="1.5" stroke-linecap="round" stroke-linejoin="round">
      <path d="M19 12H5" />
      <path d="M11 6l-6 6 6 6" />
    </g>
  </symbol>
  <symbol id="sym-bell" viewBox="0 0 24 24">
    <g fill="none" stroke="currentColor" stroke-width="1.5" stroke-linecap="round" stroke-linejoin="round">
      <path d="M18 8a6 6 0 10-12 0c0 7-3 7-3 7h18s-3 0-3-7" />
      <path d="M10.3 20a1.8 1.8 0 003.4 0" />
    </g>
  </symbol>
  <symbol id="sym-help" viewBox="0 0 24 24">
    <g fill="none" stroke="currentColor" stroke-width="1.5" stroke-linecap="round" stroke-linejoin="round">
      <circle cx="12" cy="12" r="9.25" />
      <!-- Toppbar: ? i cirkel (Feather help-circle, MIT) -->
      <path d="M9.09 9a3 3 0 015.83 1c0 2-3 3-3 3" />
      <path d="M12 17h.01" />
    </g>
  </symbol>
  <symbol id="sym-gear" viewBox="0 0 24 24">
    <g fill="none" stroke="currentColor" stroke-width="1.5" stroke-linecap="round" stroke-linejoin="round">
      <circle cx="12" cy="12" r="3" />
      <path
        d="M12 1.75v2m0 16.5v2M4.22 4.22l1.42 1.42m12.72 12.72l1.42 1.42M1.75 12h2m16.5 0h2M4.22 19.78l1.42-1.42M18.36 5.64l1.42-1.42"
      />
    </g>
  </symbol>
  <symbol id="sym-clipboard" viewBox="0 0 24 24">
    <g fill="none" stroke="currentColor" stroke-width="1.5" stroke-linecap="round" stroke-linejoin="round">
      <path d="M9 4.5H7a2 2 0 00-2 2v13a2 2 0 002 2h10a2 2 0 002-2v-13a2 2 0 00-2-2h-2" />
      <path d="M9 4.5a2 2 0 012-2h2a2 2 0 012 2M9 4.5a2 2 0 002 2h2a2 2 0 002-2" />
    </g>
  </symbol>
  <symbol id="sym-copy" viewBox="0 0 24 24">
    <g fill="none" stroke="currentColor" stroke-width="1.5" stroke-linecap="round" stroke-linejoin="round">
      <!-- Klistra in: ett dokument med veck -->
      <path d="M13 2.5H7a2 2 0 00-2 2v15a2 2 0 002 2h10a2 2 0 002-2v-9.5L13 2.5z" />
      <path d="M13 2.5v6.5h6.5" />
      <path d="M8.5 13.5h7M8.5 16.5h7M8.5 19.5h5" />
    </g>
  </symbol>
  <symbol id="sym-playlist" viewBox="0 0 24 24">
    <g fill="none" stroke="currentColor" stroke-width="1.5" stroke-linecap="round" stroke-linejoin="round">
      <path d="M4.5 8h10M4.5 12h10M4.5 16h7" />
      <path d="M17.5 3.5v9l3-.6V4.1l-3-.6z" />
      <path d="M17.5 6.2l3-.6" />
    </g>
  </symbol>
  <symbol id="sym-pencil" viewBox="0 0 24 24">
    <g fill="none" stroke="currentColor" stroke-width="1.5" stroke-linecap="round" stroke-linejoin="round">
      <path d="M4 20h4l11.5-11.5a2.12 2.12 0 000-3L16 3.5a2.12 2.12 0 00-3 0L1.5 15 4 20z" />
      <path d="M13.5 5.5l5 5" />
    </g>
  </symbol>
  <symbol id="sym-mag-refresh" viewBox="0 0 24 24">
    <g fill="none" stroke="currentColor" stroke-width="1.5" stroke-linecap="round" stroke-linejoin="round">
      <circle cx="10" cy="10" r="5.5" />
      <path d="M14.2 14.2L19 19" />
      <!-- Pil inne i linsen (förenklad sökcache) -->
      <path d="M7.8 10.2a3.2 3.2 0 014.5-2.8" />
      <path d="M11.8 7.1l1.1-0.9-1.5 0.2" />
    </g>
  </symbol>
  <symbol id="sym-refresh" viewBox="0 0 24 24">
    <g fill="none" stroke="currentColor" stroke-width="1.5" stroke-linecap="round" stroke-linejoin="round">
      <path d="M21 12a9 9 0 00-15.54-3L3 8M3 12a9 9 0 0015.54 3L21 16" />
      <path d="M3 8v4h4M21 16v-4h-4" />
    </g>
  </symbol>
  <symbol id="sym-spotify" viewBox="0 0 24 24">
    <circle cx="12" cy="12" r="12" fill="#1db954" />
    <path
      fill="#fff"
      d="M17.25 16.5c-.2 0-.4-.05-.58-.14-1.65-.75-3.8-1.15-6.32-1.15-.5 0-1 .02-1.48.06-.12.01-.24-.03-.33-.1a.42.42 0 01-.15-.32v-.8c0-.2.14-.36.34-.38.52-.05 1.06-.08 1.62-.08 2.72 0 5.05.44 6.85 1.26.18.08.3.26.3.46v.8c0 .22-.18.4-.4.4zm.9-3.2c-.25 0-.5-.07-.72-.2-1.9-1.1-4.75-1.7-7.9-1.7-.58 0-1.15.03-1.7.08-.15.02-.3-.04-.42-.15a.5.5 0 01-.18-.38v-.9c0-.24.16-.45.4-.5.6-.06 1.22-.1 1.9-.1 3.45 0 6.55.65 8.65 1.85.22.13.36.36.36.62v.9c0 .28-.22.5-.5.5zM7.5 8.6c-.28 0-.5-.22-.5-.5v-1c0-.26.16-.48.4-.58 1.15-.5 2.95-.85 5.1-.85 2.1 0 4.05.35 5.35.85.24.1.4.32.4.58v1c0 .28-.22.5-.5.5-.1 0-.2-.03-.3-.08-1.2-.5-3-.8-4.95-.8-2 0-3.75.3-4.9.8-.1.05-.2.08-.3.08z"
    />
  </symbol>
  <symbol id="sym-spotify-mark" viewBox="0 0 24 24">
    <path
      fill="currentColor"
      d="M17.25 16.5c-.2 0-.4-.05-.58-.14-1.65-.75-3.8-1.15-6.32-1.15-.5 0-1 .02-1.48.06-.12.01-.24-.03-.33-.1a.42.42 0 01-.15-.32v-.8c0-.2.14-.36.34-.38.52-.05 1.06-.08 1.62-.08 2.72 0 5.05.44 6.85 1.26.18.08.3.26.3.46v.8c0 .22-.18.4-.4.4zm.9-3.2c-.25 0-.5-.07-.72-.2-1.9-1.1-4.75-1.7-7.9-1.7-.58 0-1.15.03-1.7.08-.15.02-.3-.04-.42-.15a.5.5 0 01-.18-.38v-.9c0-.24.16-.45.4-.5.6-.06 1.22-.1 1.9-.1 3.45 0 6.55.65 8.65 1.85.22.13.36.36.36.62v.9c0 .28-.22.5-.5.5zM7.5 8.6c-.28 0-.5-.22-.5-.5v-1c0-.26.16-.48.4-.58 1.15-.5 2.95-.85 5.1-.85 2.1 0 4.05.35 5.35.85.24.1.4.32.4.58v1c0 .28-.22.5-.5.5-.1 0-.2-.03-.3-.08-1.2-.5-3-.8-4.95-.8-2 0-3.75.3-4.9.8-.1.05-.2.08-.3.08z"
    />
  </symbol>
  <symbol id="sym-lock" viewBox="0 0 24 24">
    <g fill="none" stroke="currentColor" stroke-width="1.5" stroke-linecap="round" stroke-linejoin="round">
      <rect x="5.5" y="10.5" width="13" height="10" rx="2" />
      <path d="M8 10.5V7a4 4 0 018 0v3.5" />
    </g>
  </symbol>
  <symbol id="sym-clock" viewBox="0 0 24 24">
    <g fill="none" stroke="currentColor" stroke-width="1.5" stroke-linecap="round" stroke-linejoin="round">
      <circle cx="12" cy="12" r="9.25" />
      <path d="M12 7v5l3.5 2" />
    </g>
  </symbol>
  <symbol id="sym-lightning" viewBox="0 0 24 24">
    <path
      fill="none"
      stroke="currentColor"
      stroke-width="1.5"
      stroke-linecap="round"
      stroke-linejoin="round"
      d="M13 2.5L4.5 14.5H11l-1.2 7 8.7-12H11.5L13 2.5z"
    />
  </symbol>
  <symbol id="sym-plus" viewBox="0 0 24 24">
    <path fill="none" stroke="currentColor" stroke-width="1.5" stroke-linecap="round" d="M12 5.5v13M5.5 12h13" />
  </symbol>
  <symbol id="sym-link" viewBox="0 0 24 24">
    <g fill="none" stroke="currentColor" stroke-width="1.5" stroke-linecap="round" stroke-linejoin="round">
      <path d="M10 13a5 5 0 007.07 0l1-1a5 5 0 00-7.07-7.07l-.77.77" />
      <path d="M14 11a5 5 0 00-7.07 0l-1 1a5 5 0 007.07 7.07l.77-.77" />
    </g>
  </symbol>
  <symbol id="sym-list" viewBox="0 0 24 24">
    <g fill="none" stroke="currentColor" stroke-width="1.5" stroke-linecap="round" stroke-linejoin="round">
      <path d="M9 6.5h12M9 12h12M9 17.5h12" />
      <path d="M5 6.5h.01M5 12h.01M5 17.5h.01" />
    </g>
  </symbol>
  <symbol id="sym-note" viewBox="0 0 24 24">
    <g fill="none" stroke="currentColor" stroke-width="1.5" stroke-linecap="round" stroke-linejoin="round">
      <path d="M9 18V5l11-1.5v12.5" />
      <path d="M9 9.5l11-1.5" />
    </g>
  </symbol>
  <symbol id="sym-bulb" viewBox="0 0 24 24">
    <g fill="none" stroke="currentColor" stroke-width="1.5" stroke-linecap="round" stroke-linejoin="round">
      <path d="M9 18h6M10 21.5h4M12 2.5a6.5 6.5 0 016.5 6.5c0 2.3-1.4 4.2-2.8 5.5H8.3c-1.4-1.3-2.8-3.2-2.8-5.5a6.5 6.5 0 016.5-6.5z" />
    </g>
  </symbol>
  <symbol id="sym-info" viewBox="0 0 24 24">
    <g fill="none" stroke="currentColor" stroke-width="1.5" stroke-linecap="round" stroke-linejoin="round">
      <circle cx="12" cy="12" r="9.25" />
      <!-- Info: i i cirkel -->
      <path d="M12 16v-5" />
      <path d="M12 8.25h.01" />
    </g>
  </symbol>
  <symbol id="sym-tag" viewBox="0 0 24 24">
    <g fill="none" stroke="currentColor" stroke-width="1.5" stroke-linecap="round" stroke-linejoin="round">
      <path d="M12.5 2.5H3.5v9l8.8 8.8a1.2 1.2 0 001.7 0l6.1-6.1a1.2 1.2 0 000-1.7L12.5 2.5z" />
      <circle cx="7.5" cy="7.5" r="1" />
    </g>
  </symbol>
  <symbol id="sym-mag" viewBox="0 0 24 24">
    <g fill="none" stroke="currentColor" stroke-width="1.5" stroke-linecap="round" stroke-linejoin="round">
      <circle cx="11" cy="11" r="6.5" />
      <path d="M20 20l-4.3-4.3" />
    </g>
  </symbol>
  <symbol id="sym-check-circle" viewBox="0 0 24 24">
    <g fill="none" stroke="currentColor" stroke-width="1.5" stroke-linecap="round" stroke-linejoin="round">
      <circle cx="12" cy="12" r="9.25" />
      <path d="M8 12.4l2.2 2 5.8-5.8" />
    </g>
  </symbol>
  <symbol id="sym-chevron-down" viewBox="0 0 24 24">
    <path fill="none" stroke="currentColor" stroke-width="1.5" stroke-linecap="round" stroke-linejoin="round" d="M6 9l6 6 6-6" />
  </symbol>
  <symbol id="sym-eye" viewBox="0 0 24 24">
    <g fill="none" stroke="currentColor" stroke-width="1.5" stroke-linecap="round" stroke-linejoin="round">
      <path d="M1.5 12s4-6.5 10.5-6.5S22.5 12 22.5 12s-4 6.5-10.5 6.5S1.5 12 1.5 12z" />
      <circle cx="12" cy="12" r="2.75" />
    </g>
  </symbol>
  <symbol id="sym-eye-off" viewBox="0 0 24 24">
    <g fill="none" stroke="currentColor" stroke-width="1.5" stroke-linecap="round" stroke-linejoin="round">
      <path d="M2.5 2.5l19 19" />
      <path
        d="M10.8 10.7c.4-.25.9-.4 1.4-.4 1.6 0 2.8 1.2 2.8 2.8 0 .5-.15 1-.4 1.4M6.3 6.3C4 7.5 2.4 9 1.6 11c1.7 3.9 5.7 6.5 10.4 6.5 1.5 0 3-.3 4.3-.8M14.1 14.1c1.1-.6 2-1.4 2.7-2.3"
      />
      <path d="M9.2 9.2C5.6 10.4 3.2 12.7 2.2 15.5" />
      <path d="M21.8 8.5c-1 2.8-3.4 5.1-7 6.3" />
    </g>
  </symbol>
</svg>
